<svg xmlns="http://www.w3.org/2000/svg" viewBox="0 0 1200 400" width="1200" height="400" font-family="'Segoe UI', 'Helvetica Neue', Arial, sans-serif">

  <!-- Title -->
  <text x="600" y="28" text-anchor="middle" font-size="15" font-weight="600" fill="#333" letter-spacing="0.3">Sample Demographics</text>
  <text x="600" y="46" text-anchor="middle" font-size="11" fill="#888">First-year students, single UK residence hall, South Yorkshire · 8 blocks · 45 flats</text>

  <!-- Card 1: Sample -->
  <rect x="40" y="70" width="200" height="150" rx="6" fill="none" stroke="#e0e0e0" stroke-width="1"/>
  <text x="140" y="95" text-anchor="middle" font-size="10" fill="#999" letter-spacing="0.8">SAMPLE</text>
  <text x="140" y="135" text-anchor="middle" font-size="40" font-weight="700" fill="#4E79A7">255</text>
  <text x="140" y="155" text-anchor="middle" font-size="11" fill="#666">enrolled</text>
  <line x1="80" y1="168" x2="200" y2="168" stroke="#f0f0f0" stroke-width="1"/>
  <text x="140" y="186" text-anchor="middle" font-size="10" fill="#aaa">375 targeted (68%)</text>
  <text x="140" y="202" text-anchor="middle" font-size="10" fill="#59A14F">87% retention</text>

  <!-- Card 2: Age -->
  <rect x="265" y="70" width="200" height="150" rx="6" fill="none" stroke="#e0e0e0" stroke-width="1"/>
  <text x="365" y="95" text-anchor="middle" font-size="10" fill="#999" letter-spacing="0.8">AGE</text>
  <text x="365" y="137" text-anchor="middle" font-size="40" font-weight="700" fill="#F28E2B">18.4</text>
  <text x="365" y="157" text-anchor="middle" font-size="11" fill="#666">mean years</text>
  <line x1="305" y1="168" x2="425" y2="168" stroke="#f0f0f0" stroke-width="1"/>
  <text x="365" y="186" text-anchor="middle" font-size="10" fill="#aaa">SD = 0.7</text>
  <text x="365" y="202" text-anchor="middle" font-size="10" fill="#aaa">First-year undergraduates</text>

  <!-- Card 3: Gender -->
  <rect x="490" y="70" width="310" height="150" rx="6" fill="none" stroke="#e0e0e0" stroke-width="1"/>
  <text x="645" y="95" text-anchor="middle" font-size="10" fill="#999" letter-spacing="0.8">GENDER</text>
  <!-- Bar -->
  <rect x="515" y="115" width="260" height="24" rx="3" fill="#eee"/>
  <rect x="515" y="115" width="132" height="24" rx="3" fill="#E15759" fill-opacity="0.75"/>
  <rect x="647" y="115" width="128" height="24" rx="0" fill="#4E79A7" fill-opacity="0.75"/>
  <rect x="771" y="115" width="4" height="24" rx="3" fill="#4E79A7" fill-opacity="0.75"/>
  <text x="581" y="132" text-anchor="middle" font-size="11" font-weight="600" fill="#fff">Female</text>
  <text x="711" y="132" text-anchor="middle" font-size="11" font-weight="600" fill="#fff">Male</text>
  <text x="581" y="162" text-anchor="middle" font-size="11" fill="#E15759">129 (50.6%)</text>
  <text x="711" y="162" text-anchor="middle" font-size="11" fill="#4E79A7">125 (49.0%)</text>
  <text x="645" y="202" text-anchor="middle" font-size="10" fill="#aaa">Near-equal split · 1 other (0.4%)</text>

  <!-- Card 4: Ethnicity -->
  <rect x="825" y="70" width="335" height="150" rx="6" fill="none" stroke="#e0e0e0" stroke-width="1"/>
  <text x="992" y="95" text-anchor="middle" font-size="10" fill="#999" letter-spacing="0.8">ETHNICITY</text>
  <!-- Bar -->
  <rect x="855" y="115" width="275" height="24" rx="3" fill="#eee"/>
  <rect x="855" y="115" width="229" height="24" rx="3" fill="#76B7B2" fill-opacity="0.75"/>
  <rect x="1084" y="115" width="46" height="24" rx="0" fill="#F28E2B" fill-opacity="0.6"/>
  <rect x="1126" y="115" width="4" height="24" rx="3" fill="#F28E2B" fill-opacity="0.6"/>
  <text x="969" y="132" text-anchor="middle" font-size="11" font-weight="600" fill="#fff">White</text>
  <text x="1107" y="132" text-anchor="middle" font-size="9" font-weight="600" fill="#fff">Other</text>
  <text x="969" y="162" text-anchor="middle" font-size="11" fill="#76B7B2">212 (83.1%)</text>
  <text x="1107" y="162" text-anchor="middle" font-size="10" fill="#F28E2B">43 (16.9%)</text>
  <text x="992" y="202" text-anchor="middle" font-size="10" fill="#aaa">Majority White British</text>

  <!-- Bottom: Study parameters -->
  <rect x="40" y="245" width="1120" height="130" rx="6" fill="none" stroke="#e0e0e0" stroke-width="1"/>
  <text x="600" y="270" text-anchor="middle" font-size="12" font-weight="600" fill="#555">Study Design</text>

  <!-- Parameter grid -->
  <text x="100" y="300" font-size="10" fill="#aaa">Waves</text>
  <text x="100" y="316" font-size="13" font-weight="600" fill="#333">6</text>
  <text x="100" y="332" font-size="9" fill="#bbb">Sep 22 – Oct 23</text>

  <text x="260" y="300" font-size="10" fill="#aaa">SAOM waves</text>
  <text x="260" y="316" font-size="13" font-weight="600" fill="#333">4</text>
  <text x="260" y="332" font-size="9" fill="#bbb">W2, W4, W5, W6</text>

  <text x="420" y="300" font-size="10" fill="#aaa">NAM periods</text>
  <text x="420" y="316" font-size="13" font-weight="600" fill="#333">3</text>
  <text x="420" y="332" font-size="9" fill="#bbb">Oct, Mar, Oct</text>

  <text x="580" y="300" font-size="10" fill="#aaa">Max nominations</text>
  <text x="580" y="316" font-size="13" font-weight="600" fill="#333">10 / wave</text>

  <text x="760" y="300" font-size="10" fill="#aaa">AUDIT-C range</text>
  <text x="760" y="316" font-size="13" font-weight="600" fill="#333">0–12</text>

  <text x="920" y="300" font-size="10" fill="#aaa">Residence</text>
  <text x="920" y="316" font-size="13" font-weight="600" fill="#333">1 hall · 8 blocks · 45 flats</text>

  <text x="100" y="358" font-size="10" fill="#aaa">SAOM covariates</text>
  <text x="100" y="370" font-size="11" fill="#555">Gender, majority status, flatmate/blockmate (dyadic)</text>

  <text x="760" y="358" font-size="10" fill="#aaa">RSiena n3</text>
  <text x="760" y="370" font-size="13" font-weight="600" fill="#333">10,000</text>
</svg>