<svg xmlns="http://www.w3.org/2000/svg" viewBox="0 0 1200 380" width="1200" height="380" font-family="'Segoe UI', 'Helvetica Neue', Arial, sans-serif">

  <!-- Title -->
  <text x="600" y="30" text-anchor="middle" font-size="15" font-weight="600" fill="#333" letter-spacing="0.3">Study Timeline — Six Survey Waves (Sep 2022 – Oct 2023)</text>
  <text x="600" y="50" text-anchor="middle" font-size="11" fill="#888">375 targeted · 255 enrolled (68%) · 87% final-wave retention · Single residence hall, South Yorkshire</text>

  <!-- Academic year bands -->
  <rect x="80" y="65" width="620" height="250" fill="#f5f5f5" rx="4"/>
  <rect x="700" y="65" width="420" height="250" fill="#fafafa" rx="4"/>
  <text x="390" y="82" text-anchor="middle" font-size="10" fill="#999" font-weight="500">Year 1</text>
  <text x="910" y="82" text-anchor="middle" font-size="10" fill="#bbb" font-weight="500">Year 2</text>

  <!-- Timeline axis -->
  <line x1="120" y1="180" x2="1100" y2="180" stroke="#999" stroke-width="2" stroke-linecap="round"/>
  <polygon points="1100,175 1112,180 1100,185" fill="#999"/>

  <!-- Wave 1 -->
  <circle cx="150" cy="180" r="8" fill="#4E79A7" stroke="#fff" stroke-width="2"/>
  <text x="150" y="160" text-anchor="middle" font-size="12" font-weight="600" fill="#4E79A7">W1</text>
  <text x="150" y="147" text-anchor="middle" font-size="9" fill="#888">Baseline</text>
  <text x="150" y="205" text-anchor="middle" font-size="9" fill="#666">20 Sep 2022</text>
  <text x="150" y="218" text-anchor="middle" font-size="9" fill="#aaa">N = 255</text>

  <!-- Wave 2 -->
  <circle cx="310" cy="180" r="8" fill="#F28E2B" stroke="#fff" stroke-width="2"/>
  <text x="310" y="160" text-anchor="middle" font-size="12" font-weight="600" fill="#F28E2B">W2</text>
  <text x="310" y="147" text-anchor="middle" font-size="9" fill="#888">NAM T1</text>
  <text x="310" y="205" text-anchor="middle" font-size="9" fill="#666">18 Oct 2022</text>

  <!-- Wave 3 -->
  <circle cx="460" cy="180" r="8" fill="#E15759" stroke="#fff" stroke-width="2"/>
  <text x="460" y="160" text-anchor="middle" font-size="12" font-weight="600" fill="#E15759">W3</text>
  <text x="460" y="205" text-anchor="middle" font-size="9" fill="#666">15 Nov 2022</text>

  <!-- Wave 4 -->
  <circle cx="610" cy="180" r="8" fill="#76B7B2" stroke="#fff" stroke-width="2"/>
  <text x="610" y="160" text-anchor="middle" font-size="12" font-weight="600" fill="#76B7B2">W4</text>
  <text x="610" y="205" text-anchor="middle" font-size="9" fill="#666">13 Dec 2022</text>

  <!-- Wave 5 -->
  <circle cx="800" cy="180" r="8" fill="#59A14F" stroke="#fff" stroke-width="2"/>
  <text x="800" y="160" text-anchor="middle" font-size="12" font-weight="600" fill="#59A14F">W5</text>
  <text x="800" y="147" text-anchor="middle" font-size="9" fill="#888">NAM T2</text>
  <text x="800" y="205" text-anchor="middle" font-size="9" fill="#666">07 Mar 2023</text>

  <!-- Wave 6 -->
  <circle cx="1050" cy="180" r="8" fill="#B07AA1" stroke="#fff" stroke-width="2"/>
  <text x="1050" y="160" text-anchor="middle" font-size="12" font-weight="600" fill="#B07AA1">W6</text>
  <text x="1050" y="147" text-anchor="middle" font-size="9" fill="#888">NAM T3</text>
  <text x="1050" y="205" text-anchor="middle" font-size="9" fill="#666">17 Oct 2023</text>

  <!-- Freshers' spike annotation -->
  <path d="M 150,130 Q 230,105 310,130" fill="none" stroke="#E15759" stroke-width="1.2" stroke-dasharray="3,2"/>
  <text x="230" y="100" text-anchor="middle" font-size="9" fill="#E15759" font-weight="500">Freshers' spike (4.8 → 7.4)</text>

  <!-- SAOM bracket -->
  <line x1="310" y1="240" x2="310" y2="252" stroke="#555" stroke-width="1"/>
  <line x1="610" y1="240" x2="610" y2="252" stroke="#555" stroke-width="1"/>
  <line x1="800" y1="240" x2="800" y2="252" stroke="#555" stroke-width="1"/>
  <line x1="1050" y1="240" x2="1050" y2="252" stroke="#555" stroke-width="1"/>
  <line x1="310" y1="252" x2="1050" y2="252" stroke="#555" stroke-width="1" stroke-dasharray="4,3"/>
  <text x="680" y="270" text-anchor="middle" font-size="10" fill="#555">SAOM (Ch. 7) — Waves 2, 4, 5, 6</text>

  <!-- NAM bracket -->
  <line x1="310" y1="282" x2="310" y2="294" stroke="#888" stroke-width="1"/>
  <line x1="800" y1="282" x2="800" y2="294" stroke="#888" stroke-width="1"/>
  <line x1="1050" y1="282" x2="1050" y2="294" stroke="#888" stroke-width="1"/>
  <line x1="310" y1="294" x2="1050" y2="294" stroke="#888" stroke-width="1" stroke-dasharray="4,3"/>
  <text x="680" y="312" text-anchor="middle" font-size="10" fill="#888">NAM (Ch. 5–6) — Times 1, 2, 3</text>

  <!-- Footer -->
  <text x="600" y="350" text-anchor="middle" font-size="9" fill="#bbb">Baseline covariates from W1 · AUDIT-C 0–12 · Max 10 nominations/wave · RSiena n3 = 10,000</text>
  <text x="600" y="365" text-anchor="middle" font-size="9" fill="#ccc">Sheffield Alcohol and Network Dynamics Study · University of Sheffield</text>
</svg>
